<?xml version="1.0" standalone="no"?>
<!DOCTYPE svg PUBLIC "-//W3C//DTD SVG 20010904//EN"
 "http://www.w3.org/TR/2001/REC-SVG-20010904/DTD/svg10.dtd">
<svg version="1.0" xmlns="http://www.w3.org/2000/svg"
 width="1216.000000pt" height="1216.000000pt" viewBox="0 0 1216.000000 1216.000000"
 preserveAspectRatio="xMidYMid meet">
<metadata>
Created by potrace 1.14, written by Peter Selinger 2001-2017
</metadata>
<g transform="translate(0.000000,1216.000000) scale(0.100000,-0.100000)"
fill="#000000" stroke="none">
<path d="M5939 10715 c-2 -2 -28 -6 -58 -10 -30 -4 -63 -9 -75 -11 -12 -2 -32
-6 -46 -9 -14 -3 -56 -14 -95 -25 -38 -11 -77 -22 -85 -24 -97 -26 -307 -138
-425 -226 -128 -95 -194 -162 -329 -331 -7 -8 -21 -30 -32 -47 -10 -18 -22
-32 -27 -32 -4 0 -6 -4 -2 -9 3 -5 -1 -15 -8 -23 -7 -7 -26 -40 -42 -73 -16
-33 -33 -63 -38 -66 -5 -3 -8 -9 -8 -13 3 -21 -1 -26 -22 -26 -13 0 -27 3 -31
7 -3 4 -14 8 -24 9 -9 2 -33 6 -52 10 -37 8 -39 8 -115 21 -104 17 -397 7
-474 -16 -18 -6 -36 -10 -40 -9 -3 1 -13 -1 -21 -4 -8 -3 -51 -17 -95 -31 -90
-28 -213 -84 -268 -121 -20 -14 -37 -22 -37 -18 0 4 -4 3 -8 -3 -4 -5 -29 -26
-57 -45 -107 -75 -237 -204 -310 -308 -128 -184 -208 -389 -232 -597 -14 -118
-5 -309 17 -395 5 -19 11 -46 14 -60 2 -14 11 -44 20 -68 8 -23 16 -46 17 -50
4 -21 38 -97 76 -170 24 -45 43 -84 43 -87 0 -2 -21 -14 -47 -25 -53 -23 -187
-105 -214 -129 -9 -9 -30 -26 -47 -39 -56 -43 -141 -133 -202 -215 -33 -45
-65 -87 -70 -94 -6 -7 -10 -19 -10 -28 0 -8 -4 -15 -8 -15 -8 0 -34 -53 -65
-130 -8 -19 -18 -44 -22 -55 -10 -26 -13 -34 -20 -69 -3 -16 -8 -33 -11 -38
-9 -14 -17 -58 -29 -153 -4 -33 -9 -63 -11 -67 -3 -4 0 -9 6 -13 6 -4 7 -11 3
-18 -4 -6 -7 -148 -7 -316 l-1 -304 -165 -64 c-91 -35 -174 -67 -185 -73 -49
-23 -112 -49 -125 -52 -8 -2 -17 -5 -20 -9 -3 -3 -30 -15 -60 -28 -30 -13 -91
-40 -135 -61 -44 -21 -87 -41 -95 -44 -8 -3 -64 -33 -125 -65 -60 -33 -137
-74 -170 -91 -33 -17 -71 -40 -85 -50 -21 -17 -15 -16 45 6 39 14 78 27 87 29
9 2 25 8 36 14 10 5 30 12 43 15 13 2 56 15 94 29 39 14 84 28 100 32 40 11
32 8 190 55 77 23 147 43 155 45 8 2 74 19 145 38 139 37 410 103 460 111 17
3 45 10 63 15 17 5 32 7 32 4 0 -3 6 0 13 6 8 6 16 9 19 6 2 -3 20 0 39 5 19
6 49 13 68 16 18 3 43 8 55 10 77 16 285 56 306 58 14 2 41 7 60 11 19 4 46 9
60 10 14 1 34 5 45 8 11 4 40 9 65 12 42 4 78 11 90 15 3 1 9 2 13 1 5 -1 34
3 65 8 32 6 77 13 102 16 63 8 101 13 130 19 14 2 50 7 80 10 30 4 66 8 80 11
14 2 48 6 75 9 86 9 149 16 180 21 17 2 60 7 96 10 90 9 150 15 174 19 11 2
25 4 31 5 7 1 10 136 10 449 0 466 4 539 31 612 3 8 8 23 10 34 6 31 91 189
125 231 40 50 179 185 190 185 5 0 14 5 21 10 46 39 157 94 247 123 94 31 164
43 290 51 108 7 193 63 238 158 60 124 20 266 -98 348 -56 40 -70 51 -141 123
-266 268 -338 665 -181 997 30 63 62 120 72 130 3 3 18 23 34 44 40 53 123
136 171 172 22 16 42 32 45 35 21 27 252 132 315 143 14 3 34 7 44 11 41 13
101 18 226 19 115 0 150 -2 230 -18 103 -20 279 -100 375 -170 91 -67 240
-224 240 -255 0 -6 4 -11 10 -11 5 0 12 -11 16 -25 3 -14 10 -25 15 -25 5 0 9
-9 9 -19 0 -11 4 -21 8 -23 9 -3 58 -137 67 -183 3 -16 8 -43 12 -60 16 -77 7
-253 -17 -348 -21 -83 -99 -255 -130 -288 -8 -9 -24 -29 -35 -45 -29 -43 -144
-153 -207 -198 -30 -22 -66 -56 -80 -75 -31 -43 -55 -122 -53 -171 2 -46 34
-140 47 -140 6 0 9 -3 5 -6 -10 -10 56 -69 103 -92 45 -21 68 -25 209 -37 41
-4 85 -11 98 -16 13 -5 38 -11 55 -14 44 -8 173 -63 233 -99 108 -65 179 -127
270 -237 22 -26 73 -111 72 -119 0 -3 10 -24 21 -46 12 -23 31 -75 43 -115 21
-71 22 -95 24 -552 2 -263 5 -480 7 -482 4 -4 26 -7 163 -20 33 -3 76 -8 95
-10 19 -3 62 -7 95 -11 33 -3 76 -7 95 -9 19 -3 58 -7 85 -10 91 -11 110 -14
110 -15 0 -1 20 -3 45 -4 25 -2 61 -7 80 -12 19 -4 38 -7 42 -6 3 1 46 -5 95
-13 48 -7 105 -16 126 -19 63 -10 109 -17 131 -22 11 -2 41 -7 66 -9 25 -3 53
-8 63 -11 10 -3 35 -7 55 -10 20 -2 44 -5 52 -7 8 -2 33 -7 55 -11 22 -4 63
-12 90 -18 28 -6 59 -12 70 -13 11 -1 34 -5 50 -8 29 -7 52 -12 105 -22 14 -3
36 -7 50 -10 14 -3 36 -8 50 -11 14 -2 63 -14 110 -25 47 -11 94 -22 105 -23
11 -1 27 -5 35 -8 8 -4 40 -12 70 -18 30 -6 62 -14 70 -17 8 -3 24 -7 36 -8
11 -2 40 -9 65 -15 24 -7 52 -14 61 -15 10 -2 22 -6 26 -9 5 -3 19 -7 33 -10
13 -2 60 -14 104 -26 44 -12 91 -24 105 -27 14 -2 29 -8 35 -14 5 -5 17 -9 28
-9 10 0 62 -14 115 -30 186 -59 467 -152 487 -162 14 -7 17 -7 10 0 -22 24
-204 122 -222 121 -3 0 -9 4 -12 9 -8 13 -312 163 -449 221 -57 25 -105 48
-108 52 -2 4 -5 119 -5 256 -1 136 -6 275 -11 308 -5 33 -10 69 -12 80 -2 11
-5 27 -8 35 -3 8 -12 35 -19 60 -21 73 -84 205 -136 282 -51 77 -235 268 -258
268 -7 0 -15 4 -17 8 -4 11 -94 72 -105 72 -5 0 -18 7 -30 15 l-22 15 41 86
c22 48 42 94 43 103 2 9 4 17 5 19 2 1 3 5 5 10 1 4 4 14 7 22 37 96 53 310
36 465 -17 155 -89 339 -191 488 -72 106 -295 317 -335 317 -7 0 -12 5 -12 10
0 6 -6 10 -14 10 -8 0 -16 3 -18 8 -4 9 -90 52 -105 52 -6 0 -13 4 -15 10 -1
5 -12 11 -23 13 -11 2 -29 7 -40 11 -74 28 -96 35 -150 47 -81 17 -82 17 -145
24 -59 7 -209 8 -250 2 -86 -13 -124 -21 -200 -44 -74 -21 -201 -77 -265 -116
-43 -26 -121 -82 -148 -106 -54 -48 -137 -131 -137 -135 0 -3 -12 -18 -26 -33
-36 -37 -126 -175 -165 -252 -17 -34 -34 -63 -38 -65 -3 -1 -44 16 -90 39 -72
36 -81 44 -70 56 16 16 30 41 69 114 15 28 31 59 37 70 18 32 60 138 69 170 4
17 8 32 9 35 74 247 81 478 21 753 -27 120 -108 310 -177 415 -16 24 -29 47
-29 52 0 4 -3 10 -7 12 -5 2 -28 30 -53 63 -202 268 -561 493 -885 556 -38 7
-72 16 -75 19 -3 3 -21 6 -40 7 -68 5 -388 12 -391 8z m-1484 -1444 c43 -12
83 -25 88 -30 5 -5 11 -33 13 -63 2 -29 6 -78 8 -108 3 -30 6 -57 7 -60 1 -3
3 -9 4 -15 1 -5 8 -37 15 -70 8 -33 14 -62 15 -65 0 -3 12 -36 25 -75 13 -38
23 -73 22 -77 -1 -5 2 -8 8 -8 5 0 10 -6 10 -14 0 -14 79 -176 90 -186 3 -3
16 -21 27 -40 l22 -35 -110 -54 c-60 -29 -109 -58 -109 -62 0 -5 -3 -8 -7 -7
-8 2 -63 -30 -73 -43 -3 -3 -12 -10 -21 -15 -79 -45 -221 -188 -337 -339 -13
-17 -46 -69 -58 -90 -55 -101 -84 -156 -84 -160 -1 -10 -12 -41 -20 -56 -7
-13 -27 -77 -35 -109 0 -3 -4 -14 -8 -25 -3 -11 -8 -31 -11 -45 -3 -14 -7 -36
-11 -50 -14 -67 -19 -181 -20 -477 l0 -321 -75 -16 c-77 -17 -98 -21 -160 -32
-72 -13 -234 -50 -335 -75 -44 -12 -89 -22 -100 -23 -12 -1 -25 -5 -30 -8 -6
-3 -26 -9 -45 -14 -19 -4 -39 -9 -45 -10 -109 -29 -191 -52 -217 -63 -33 -12
-30 -37 -30 254 0 206 4 255 33 344 18 57 77 164 109 200 17 18 30 34 30 36 0
10 96 95 108 95 6 0 12 4 12 8 0 15 131 83 217 111 49 16 117 32 153 36 139
13 200 24 200 35 0 4 16 15 35 26 55 29 123 143 112 186 -3 10 -2 20 3 23 4 2
6 15 4 27 -14 97 -49 159 -118 209 -26 18 -46 36 -46 41 0 4 -5 8 -11 8 -12 0
-100 88 -139 140 -60 79 -123 226 -136 319 -11 79 -7 200 10 276 16 75 108
265 128 265 5 0 8 5 8 11 0 16 159 169 176 169 3 0 20 11 38 25 18 14 36 25
39 25 4 0 34 13 67 29 33 16 60 27 60 25 0 -3 8 0 18 5 10 5 36 12 57 15 22 4
54 10 70 15 55 15 263 5 350 -18z m4365 -743 c66 -17 172 -64 208 -93 75 -60
124 -109 154 -155 84 -131 101 -186 101 -330 -1 -113 -7 -140 -54 -237 -41
-84 -112 -165 -226 -260 -45 -38 -81 -90 -90 -133 -28 -122 18 -237 122 -307
41 -28 78 -37 197 -47 74 -7 192 -47 260 -88 112 -67 215 -200 249 -321 7 -23
14 -111 15 -195 2 -153 2 -154 -19 -148 -12 4 -29 8 -37 10 -8 3 -51 16 -95
31 -44 15 -87 28 -96 30 -9 2 -36 10 -60 18 -42 14 -249 74 -286 82 -10 2 -54
14 -98 26 -44 11 -109 28 -145 36 -36 8 -81 18 -100 23 -89 21 -227 51 -250
55 -14 2 -36 6 -50 9 -14 4 -38 9 -55 11 -16 3 -62 12 -102 20 -40 8 -73 15
-75 15 -2 0 -3 147 -2 326 0 180 -3 348 -7 373 -4 25 -10 62 -13 81 -10 63
-23 114 -50 195 -28 80 -103 246 -116 255 -4 3 -14 19 -23 37 -9 17 -22 37
-29 45 -33 33 -49 69 -41 91 4 12 8 27 8 32 2 20 84 185 118 237 20 29 59 77
87 106 52 54 177 142 202 142 8 0 18 4 24 9 40 40 254 50 374 19z"/>
<path d="M5775 6142 c-1 -2 -90 -5 -196 -8 -107 -2 -239 -7 -294 -10 -55 -2
-140 -7 -190 -9 -49 -3 -117 -7 -150 -9 -33 -2 -103 -7 -155 -11 -159 -11
-182 -13 -255 -19 -80 -7 -136 -13 -215 -22 -63 -7 -114 -12 -185 -18 -28 -2
-69 -7 -90 -10 -22 -3 -62 -8 -90 -11 -27 -4 -61 -8 -75 -10 -14 -2 -50 -7
-80 -10 -30 -4 -62 -9 -71 -10 -9 -2 -38 -6 -65 -9 -27 -4 -65 -9 -84 -12 -19
-3 -48 -7 -65 -9 -16 -2 -39 -6 -50 -8 -11 -3 -40 -8 -65 -11 -25 -3 -56 -8
-70 -11 -13 -2 -42 -7 -65 -10 -46 -7 -79 -13 -115 -20 -14 -3 -52 -10 -85
-16 -70 -12 -91 -16 -125 -24 -14 -3 -38 -7 -55 -10 -16 -2 -41 -7 -55 -10
-14 -3 -36 -7 -50 -10 -62 -11 -141 -28 -239 -51 -36 -9 -75 -18 -86 -20 -75
-14 -258 -58 -310 -73 -16 -5 -46 -13 -65 -17 -47 -11 -50 -11 -52 -14 -3 -2
-17 -5 -54 -13 -34 -8 -348 -98 -364 -104 -18 -8 -17 -7 -60 -17 -19 -5 -39
-11 -45 -14 -5 -4 -14 -7 -20 -8 -5 -1 -29 -9 -53 -18 -23 -8 -43 -15 -45 -15
-1 0 -11 -3 -22 -6 -33 -11 -50 -16 -50 -15 0 1 -164 -58 -185 -67 -8 -3 -21
-7 -28 -9 -8 -1 -21 -6 -30 -10 -9 -4 -19 -8 -22 -9 -3 -1 -18 -7 -33 -13 -16
-7 -34 -12 -41 -12 -6 0 -16 -4 -21 -8 -6 -5 -32 -17 -60 -26 -27 -10 -59 -21
-70 -26 -11 -5 -63 -27 -115 -49 -52 -23 -101 -41 -108 -41 -6 0 -12 -4 -12
-10 0 -5 -3 -9 -7 -8 -19 4 -484 -217 -491 -234 -2 -4 -19 -12 -38 -18 -19 -6
-34 -16 -34 -21 0 -6 8 -5 20 1 11 6 20 9 20 6 0 -2 19 1 43 6 55 13 76 17
111 24 16 2 32 6 35 8 5 4 56 14 106 21 11 2 20 4 20 5 0 3 50 13 125 25 14 3
77 16 140 29 127 28 186 39 213 40 9 0 17 3 17 6 0 4 6 7 13 8 34 2 122 18
122 22 0 1 14 3 30 5 17 2 41 6 55 9 14 3 41 9 60 12 19 4 44 9 55 11 11 2 31
6 45 9 14 2 48 9 75 14 98 19 162 30 195 34 9 1 20 4 25 7 6 3 26 6 45 8 19 1
49 6 65 11 17 5 48 12 70 15 23 3 50 7 62 9 11 3 38 7 59 11 78 12 100 16 149
25 73 14 106 20 145 25 19 3 46 7 60 10 14 3 45 8 70 11 25 3 52 7 60 9 8 3
33 7 55 10 22 4 51 8 65 10 14 3 41 7 60 9 53 8 102 15 130 20 14 3 45 7 70
10 25 3 56 8 70 11 14 3 45 7 70 10 25 3 54 7 65 9 19 4 90 14 145 21 14 2 49
6 79 9 30 3 61 8 70 10 9 3 43 7 76 11 33 3 77 8 98 11 21 3 53 7 70 9 58 6
152 17 169 20 9 2 49 7 89 10 40 4 82 9 93 11 12 2 53 7 91 10 39 3 86 7 105
9 19 2 69 7 110 10 41 3 86 8 100 11 14 3 31 5 38 5 28 -2 39 -1 72 3 19 2 76
7 125 11 50 3 110 8 135 10 46 4 176 14 285 20 33 2 116 6 185 9 69 3 125 6
125 7 0 2 125 7 345 12 118 3 223 9 233 12 10 4 17 2 17 -5 0 -6 5 -8 12 -4
13 8 667 13 683 5 17 -9 45 -8 45 1 0 5 4 6 10 3 5 -3 94 -8 197 -11 104 -2
229 -7 278 -9 50 -2 140 -7 200 -9 61 -3 146 -8 190 -11 44 -4 107 -8 140 -10
71 -4 196 -13 280 -20 33 -3 87 -8 120 -11 33 -2 80 -6 105 -9 153 -14 268
-25 315 -30 17 -1 62 -6 100 -10 39 -3 81 -8 95 -11 43 -7 164 -18 198 -19 17
0 32 -2 32 -5 0 -3 17 -7 38 -8 37 -3 74 -7 162 -18 25 -4 56 -8 70 -9 14 -2
25 -4 25 -5 0 -1 16 -3 35 -5 87 -9 127 -14 150 -19 14 -3 48 -8 75 -11 112
-14 187 -25 205 -30 8 -2 35 -6 60 -9 25 -3 59 -8 75 -11 61 -10 91 -15 145
-21 30 -4 57 -9 60 -13 3 -3 19 -6 35 -5 17 0 42 -3 58 -7 15 -4 50 -11 79
-14 28 -4 60 -9 72 -11 12 -2 37 -7 56 -9 19 -3 46 -8 60 -11 14 -3 41 -8 60
-10 19 -2 46 -7 60 -11 14 -3 34 -7 45 -8 22 -3 185 -32 225 -40 14 -3 39 -7
56 -9 16 -2 39 -6 50 -9 10 -3 37 -9 59 -12 62 -11 78 -14 100 -18 11 -3 58
-12 105 -21 47 -9 96 -18 110 -21 14 -3 39 -7 55 -10 40 -7 69 -12 130 -25 28
-6 73 -15 100 -20 83 -15 108 -21 145 -30 42 -11 108 -23 133 -24 9 0 17 -4
17 -9 0 -4 3 -6 8 -4 4 3 59 -6 122 -19 63 -14 128 -27 144 -30 16 -3 32 -6
35 -8 3 -2 24 -7 46 -10 22 -4 47 -8 55 -11 46 -13 70 -13 70 1 0 16 -332 182
-530 264 -30 13 -59 27 -65 32 -5 4 -15 8 -23 8 -7 0 -37 11 -65 24 -71 33
-239 96 -254 96 -7 0 -13 4 -13 8 0 5 -6 9 -12 9 -7 1 -65 20 -128 42 -63 23
-122 44 -130 46 -8 2 -78 24 -155 50 -77 25 -158 50 -180 56 -22 5 -47 13 -55
16 -8 3 -19 7 -25 9 -5 1 -68 19 -140 39 -71 20 -146 41 -165 45 -19 4 -62 16
-95 25 -33 9 -71 19 -85 21 -14 3 -43 10 -65 16 -22 5 -40 10 -40 10 0 0 -27
6 -60 14 -33 8 -69 17 -80 19 -44 8 -84 17 -166 36 -48 11 -97 21 -110 23 -13
2 -35 6 -49 10 -14 3 -36 8 -50 10 -14 3 -34 7 -45 9 -19 4 -76 15 -122 23
-28 5 -61 11 -88 17 -52 12 -248 43 -315 51 -19 2 -46 7 -60 10 -26 6 -78 14
-140 22 -19 2 -46 6 -60 9 -14 2 -45 7 -70 10 -25 3 -76 10 -115 15 -38 5 -95
12 -125 16 -30 3 -68 8 -85 10 -16 2 -52 7 -80 9 -27 3 -63 7 -80 9 -16 2 -66
6 -110 10 -44 4 -91 9 -105 11 -30 5 -214 20 -355 30 -33 2 -60 4 -60 5 0 0
-40 3 -90 6 -49 3 -128 7 -175 10 -104 6 -245 11 -495 20 -199 6 -865 11 -870
6z"/>
<path d="M5046 5333 c-2 -2 -158 -13 -186 -13 -27 0 -74 -2 -100 -4 -14 -2
-44 -4 -66 -4 l-42 -2 4 -72 c2 -40 6 -79 9 -85 2 -7 0 -13 -6 -13 -6 0 -7 -5
-4 -10 4 -6 9 -46 11 -88 2 -42 6 -111 9 -152 3 -41 8 -100 10 -130 4 -61 12
-150 20 -225 3 -27 8 -68 10 -90 9 -85 16 -140 20 -152 5 -16 -4 -21 -51 -29
-39 -6 -157 -28 -204 -39 -29 -6 -76 -16 -105 -21 -124 -23 -462 -121 -552
-160 -17 -8 -36 -14 -42 -14 -6 0 -26 -9 -46 -20 -19 -11 -35 -18 -35 -15 0 6
-242 -116 -256 -130 -6 -5 -27 -19 -47 -30 -20 -11 -37 -23 -37 -27 0 -5 -6
-8 -14 -8 -8 0 -16 -4 -18 -10 -6 -17 -24 4 -73 85 -51 83 -195 361 -195 375
0 4 -10 29 -22 56 -12 27 -23 51 -23 54 -1 3 -7 19 -14 35 -15 34 -62 165 -65
180 -2 6 -15 49 -30 97 -15 48 -29 95 -31 105 -2 10 -11 50 -20 88 -9 39 -18
79 -20 90 -2 11 -9 55 -17 99 l-13 78 -55 -7 c-30 -4 -64 -8 -75 -10 -11 -2
-45 -6 -75 -10 -116 -14 -143 -18 -220 -31 -19 -4 -51 -8 -70 -10 -74 -9 -75
-9 -73 -40 2 -40 13 -104 33 -196 5 -27 15 -69 20 -95 6 -26 20 -82 31 -123
12 -41 22 -79 23 -85 6 -30 70 -221 77 -230 5 -5 9 -19 9 -31 0 -13 5 -26 10
-29 6 -3 10 -13 10 -20 0 -8 13 -44 30 -80 17 -36 30 -69 30 -74 0 -4 11 -29
25 -55 13 -25 25 -48 25 -51 0 -16 129 -264 179 -345 12 -19 24 -43 27 -52 4
-10 10 -18 15 -18 5 0 9 -5 9 -11 0 -6 37 -65 82 -132 70 -105 106 -153 198
-271 113 -144 326 -368 465 -491 44 -38 82 -72 85 -75 18 -20 174 -140 270
-208 63 -45 120 -86 127 -92 7 -5 15 -10 18 -10 4 0 25 -13 48 -29 23 -16 47
-30 52 -31 6 -1 28 -15 50 -30 89 -61 464 -244 585 -285 3 -1 16 -6 30 -12 14
-6 54 -20 90 -32 36 -13 72 -25 80 -28 8 -3 21 -8 28 -10 6 -1 18 -5 25 -6 6
-2 19 -6 27 -9 8 -3 35 -11 60 -18 25 -7 56 -16 70 -21 14 -5 34 -11 45 -13
11 -2 50 -11 88 -20 37 -9 79 -18 95 -21 15 -3 38 -7 52 -10 67 -14 204 -35
280 -44 160 -19 194 -22 299 -27 193 -9 231 -9 231 -1 0 4 8 3 19 -2 10 -6 20
-8 23 -6 3 3 58 7 124 10 65 3 140 7 167 10 26 3 68 7 95 10 47 5 248 33 280
40 9 2 62 13 117 25 55 12 109 23 120 25 11 3 74 21 140 40 66 20 128 37 137
40 41 9 293 105 398 152 160 70 569 297 620 345 11 10 22 18 25 18 5 0 50 32
110 77 6 5 37 28 70 53 33 25 65 50 71 55 6 6 28 24 49 40 183 143 482 459
651 685 110 148 274 397 274 416 0 3 9 17 20 31 11 14 17 29 14 34 -3 5 -1 9
4 9 5 0 17 19 28 43 10 23 21 44 24 47 6 6 35 65 80 165 45 99 53 119 52 128
-1 4 3 7 8 7 5 0 9 3 8 8 -1 4 3 18 9 32 6 14 25 66 43 115 17 50 37 102 42
117 6 15 10 30 9 33 0 3 6 22 14 42 14 36 70 239 81 293 3 14 14 68 24 120 31
154 32 160 18 161 -30 2 -66 7 -108 14 -25 4 -58 9 -75 10 -16 2 -30 5 -30 6
0 1 -16 3 -35 5 -43 5 -87 11 -120 18 -14 2 -50 7 -80 11 -30 3 -69 8 -86 11
-21 3 -31 1 -31 -8 -1 -16 -11 -73 -20 -113 -4 -16 -8 -34 -8 -40 -1 -5 -5
-26 -10 -45 -5 -19 -9 -39 -10 -45 -1 -5 -4 -17 -7 -25 -6 -14 -19 -61 -23
-85 -1 -5 -3 -12 -4 -15 -2 -3 -4 -13 -6 -22 -4 -24 -54 -180 -65 -203 -5 -11
-12 -31 -15 -45 -4 -14 -13 -38 -20 -55 -8 -16 -28 -64 -45 -105 -63 -148
-216 -439 -262 -497 -7 -9 -22 -3 -57 23 -27 19 -53 34 -60 34 -6 0 -11 5 -11
10 0 6 -6 10 -14 10 -8 0 -16 4 -18 9 -8 21 -281 142 -433 193 -33 10 -69 23
-80 28 -11 4 -38 13 -60 19 -22 6 -71 19 -110 30 -38 11 -81 22 -95 25 -14 3
-34 7 -45 10 -11 2 -42 10 -70 16 -27 6 -61 14 -75 16 -14 3 -80 16 -147 30
-67 13 -128 23 -135 22 -14 -3 -15 43 -3 142 3 30 8 73 10 95 2 22 6 65 9 95
12 97 14 129 31 385 12 171 15 305 8 306 -25 4 -59 7 -153 13 -58 4 -139 9
-180 12 -172 11 -230 12 -234 6 -2 -4 -7 -70 -11 -147 -3 -77 -8 -160 -10
-185 -1 -25 -6 -88 -9 -140 -4 -53 -9 -107 -11 -120 -2 -14 -7 -56 -9 -95 -3
-38 -8 -86 -10 -105 -5 -37 -17 -146 -19 -168 0 -14 -59 -13 -247 3 -30 3
-108 7 -172 9 -65 2 -122 7 -127 10 -5 4 -12 2 -15 -2 -3 -5 -25 -6 -49 -2
-35 5 -702 6 -702 0 0 0 -49 -3 -110 -5 -125 -5 -280 -14 -280 -15 0 -1 -31
-3 -70 -6 -38 -2 -76 -7 -82 -9 -7 -2 -13 0 -13 5 0 5 -4 42 -10 82 -5 40 -12
96 -14 123 -3 28 -8 71 -11 98 -5 50 -14 153 -20 252 -10 156 -17 286 -20 350
-2 39 -3 73 -4 77 -1 6 -178 7 -185 1z m844 -1535 c0 -5 6 -6 13 -1 15 10 667
12 667 2 0 -4 16 -3 34 1 19 4 37 6 40 3 2 -2 44 -6 93 -8 109 -5 281 -16 302
-20 9 -2 21 -4 27 -4 8 -1 7 -17 -2 -58 -8 -32 -16 -69 -19 -83 -2 -14 -9 -40
-14 -59 -6 -18 -10 -36 -9 -40 0 -3 -1 -9 -2 -13 -1 -5 -4 -12 -5 -18 -1 -5
-3 -11 -5 -12 -2 -3 -7 -23 -15 -60 -3 -15 -10 -40 -16 -55 -6 -16 -11 -30
-11 -33 -1 -8 -5 -22 -39 -130 -18 -58 -34 -108 -35 -112 -1 -5 -3 -10 -4 -13
-1 -3 -3 -8 -4 -12 -1 -5 -6 -21 -13 -38 -6 -16 -27 -71 -46 -120 -20 -50 -48
-118 -63 -150 -15 -33 -28 -62 -29 -65 -4 -13 -30 -66 -35 -70 -3 -3 -13 -22
-23 -44 -32 -69 -129 -208 -191 -273 -34 -35 -86 -79 -116 -96 -48 -28 -65
-32 -126 -32 -55 0 -81 5 -119 25 -52 26 -172 140 -202 190 -9 17 -21 30 -25
30 -4 0 -8 5 -8 11 0 6 -13 29 -29 52 -41 60 -131 240 -180 362 -5 11 -13 31
-18 45 -32 78 -53 135 -58 160 -1 3 -8 21 -16 40 -8 19 -25 71 -38 115 -13 44
-26 87 -29 95 -3 8 -6 20 -7 25 -2 6 -8 30 -15 55 -7 25 -13 50 -14 55 -1 6
-5 15 -9 21 -3 6 -9 26 -11 45 -3 19 -11 54 -17 79 -6 25 -13 54 -15 65 -2 11
-8 39 -14 63 -6 24 -8 47 -6 51 3 4 32 7 65 6 34 0 61 2 61 5 0 3 21 7 48 7
113 4 265 12 268 16 8 7 34 3 34 -5z m-1038 -184 c10 -43 19 -90 22 -104 2
-14 7 -35 10 -47 12 -45 17 -68 22 -93 2 -14 7 -32 10 -40 7 -17 34 -116 39
-142 2 -9 8 -25 14 -36 6 -11 8 -22 5 -25 -3 -3 0 -15 6 -27 6 -12 13 -30 15
-41 11 -55 152 -435 184 -496 40 -76 120 -247 117 -250 -4 -4 -120 30 -161 47
-11 4 -48 18 -83 30 -35 12 -80 29 -100 38 -20 9 -39 17 -42 17 -52 17 -287
132 -385 187 -103 59 -295 183 -340 220 -5 4 -46 36 -90 70 -44 34 -82 64 -85
67 -3 3 -36 33 -75 66 -38 33 -118 109 -177 169 -84 85 -105 112 -97 123 12
14 178 96 219 108 14 4 39 13 55 20 57 25 347 115 418 129 20 5 34 8 85 20 44
11 249 53 262 54 8 1 33 5 55 10 74 17 78 14 97 -74z m2922 70 c12 -3 32 -7
46 -10 135 -25 414 -92 500 -121 25 -9 55 -17 66 -18 12 -2 31 -8 43 -15 12
-6 30 -13 39 -15 58 -11 304 -118 330 -142 7 -7 18 -13 23 -13 5 0 9 -5 9 -11
0 -12 -221 -233 -309 -309 -35 -30 -73 -63 -83 -72 -10 -10 -21 -18 -24 -18
-3 0 -11 -6 -19 -12 -29 -28 -56 -48 -64 -48 -5 0 -11 -7 -15 -15 -3 -8 -12
-15 -21 -15 -8 0 -15 -4 -15 -8 0 -4 -15 -16 -32 -27 -18 -10 -35 -21 -38 -25
-6 -9 -100 -68 -210 -134 -75 -45 -311 -165 -365 -186 -11 -5 -40 -17 -65 -28
-104 -45 -378 -137 -386 -130 -2 3 14 38 36 78 22 40 40 74 40 75 0 2 17 41
39 87 55 118 71 158 63 158 -4 0 -2 4 3 8 11 8 50 112 97 262 17 52 34 104 39
115 9 23 49 167 75 275 11 41 22 77 27 78 4 2 5 7 2 12 -3 5 2 39 11 77 9 37
18 77 20 88 1 11 3 21 4 23 4 3 7 20 9 38 1 13 10 14 53 9 28 -4 60 -9 72 -11z"/>
</g>
</svg>
